<svg width="226" height="226" viewBox="0 0 226 226" fill="none" xmlns="http://www.w3.org/2000/svg">
<circle cx="113" cy="113" r="113" fill="url(#paint0_radial)"/>
<path d="M48.1429 120.891C49.5289 121.964 51.8997 123.43 55.2553 125.29C58.6839 127.149 61.9301 128.079 64.9939 128.079C68.1307 128.079 69.6991 126.899 69.6991 124.539C69.6991 123.466 69.2614 122.536 68.386 121.749C67.5106 120.891 65.9058 119.925 63.5714 118.852C61.2371 117.779 59.4863 116.957 58.3191 116.384C57.152 115.741 55.5836 114.739 53.614 113.38C51.7173 111.95 50.2584 110.483 49.2371 108.981C46.3191 104.904 44.8602 99.7185 44.8602 93.424C44.8602 87.1296 47.231 81.8365 51.9726 77.5448C56.7872 73.1816 63.0608 71 70.7933 71C76.0456 71 80.8967 71.5722 85.3465 72.7167C89.7964 73.7896 92.0942 75.2201 92.2401 77.0083C92.2401 77.2229 92.2401 77.4375 92.2401 77.6521C92.2401 80.1556 91.4377 83.3386 89.8328 87.2011C88.228 90.9921 87.0973 93.1021 86.4407 93.5313C81.772 91.1709 77.5775 89.9907 73.8571 89.9907C70.2097 89.9907 68.386 91.2782 68.386 93.8532C68.386 95.4268 69.7356 96.8216 72.4347 98.0376C73.0182 98.3237 73.8571 98.7171 74.9514 99.2178C76.0456 99.7185 77.2857 100.326 78.6717 101.042C80.1307 101.685 81.6626 102.544 83.2675 103.617C84.9453 104.618 86.7325 105.977 88.6292 107.694C92.4954 111.27 94.4286 115.991 94.4286 121.856C94.4286 129.51 92.2766 135.769 87.9726 140.632C83.6687 145.496 77.0304 148 68.0578 148.143C63.6809 148.143 59.7052 147.785 56.1307 147.07C52.6292 146.355 49.5653 144.96 46.9392 142.886C44.3131 140.811 43 138.308 43 135.375C43 132.442 43.5471 129.546 44.6413 126.684C45.7356 123.752 46.9027 121.821 48.1429 120.891Z" fill="#FFA500"/>
<path d="M50.8572 122.748C52.2432 123.821 54.614 125.287 57.9696 127.147C61.3982 129.007 64.6444 129.936 67.7082 129.936C70.845 129.936 72.4134 128.756 72.4134 126.396C72.4134 125.323 71.9757 124.393 71.1003 123.606C70.2249 122.748 68.6201 121.782 66.2857 120.709C63.9514 119.636 62.2006 118.814 61.0334 118.242C59.8663 117.598 58.2979 116.596 56.3283 115.237C54.4316 113.807 52.9727 112.341 51.9514 110.838C49.0334 106.761 47.5745 101.576 47.5745 95.2811C47.5745 88.9867 49.9453 83.6936 54.6869 79.4019C59.5015 75.0387 65.7751 72.8571 73.5076 72.8571C78.7599 72.8571 83.611 73.4293 88.0608 74.5738C92.5106 75.6467 94.8085 77.0773 94.9544 78.8655C94.9544 79.08 94.9544 79.2946 94.9544 79.5092C94.9544 82.0127 94.152 85.1957 92.5471 89.0582C90.9423 92.8492 89.8116 94.9593 89.155 95.3884C84.4863 93.028 80.2918 91.8478 76.5714 91.8478C72.924 91.8478 71.1003 93.1353 71.1003 95.7103C71.1003 97.2839 72.4499 98.6787 75.1489 99.8947C75.7325 100.181 76.5714 100.574 77.6657 101.075C78.7599 101.576 80 102.184 81.386 102.899C82.845 103.543 84.3769 104.401 85.9818 105.474C87.6596 106.475 89.4468 107.834 91.3435 109.551C95.2097 113.127 97.1429 117.848 97.1429 123.713C97.1429 131.367 94.9909 137.626 90.6869 142.49C86.383 147.353 79.7447 149.857 70.772 150C66.3951 150 62.4195 149.642 58.845 148.927C55.3435 148.212 52.2796 146.817 49.6535 144.743C47.0274 142.668 45.7143 140.165 45.7143 137.232C45.7143 134.3 46.2614 131.403 47.3556 128.542C48.4499 125.609 49.617 123.678 50.8572 122.748Z" fill="#FF6347" fill-opacity="0.79"/>
<path d="M174.429 146.341C174.429 147.542 170.892 148.143 163.819 148.143C156.747 148.143 153.21 147.542 153.21 146.341V121.968H138.504V146.341C138.504 147.542 134.968 148.143 127.895 148.143C120.822 148.143 117.286 147.542 117.286 146.341V76.0825C117.286 74.5989 120.822 73.8571 127.895 73.8571C134.968 73.8571 138.504 74.5989 138.504 76.0825V100.986H153.21V76.2945C153.21 75.3054 154.961 74.5989 158.462 74.175C160.283 74.0337 162.069 73.9631 163.819 73.9631L169.177 74.175C172.678 74.5989 174.429 75.3054 174.429 76.2945V146.341Z" fill="#FFA500"/>
<path d="M177.143 148.198C177.143 149.399 173.606 150 166.534 150C159.461 150 155.924 149.399 155.924 148.198V123.825H141.218V148.198C141.218 149.399 137.682 150 130.609 150C123.536 150 120 149.399 120 148.198V77.9396C120 76.456 123.536 75.7142 130.609 75.7142C137.682 75.7142 141.218 76.456 141.218 77.9396V102.843H155.924V78.1516C155.924 77.1625 157.675 76.456 161.176 76.0321C162.997 75.8909 164.783 75.8202 166.534 75.8202L171.891 76.0321C175.392 76.456 177.143 77.1625 177.143 78.1516V148.198Z" fill="#FF6347" fill-opacity="0.79"/>
<defs>
<radialGradient id="paint0_radial" cx="0" cy="0" r="1" gradientUnits="userSpaceOnUse" gradientTransform="translate(113 113) rotate(90) scale(113)">
<stop stop-color="#424242"/>
<stop offset="0.390625" stop-color="#424242" stop-opacity="0.88"/>
<stop offset="0.885417" stop-color="#424242"/>
<stop offset="1" stop-color="#424242"/>
</radialGradient>
</defs>
</svg>
